<svg width="40" height="50" viewBox="0 0 40 50" fill="none" xmlns="http://www.w3.org/2000/svg">
<path fill-rule="evenodd" clip-rule="evenodd" d="M2 0C0.895429 0 0 0.89543 0 2V29.827C0 31.0183 0.102541 32.1869 0.29939 33.3229C0.552418 34.7832 2.31971 35.2032 3.36312 34.1508L9.78681 27.6715C10.775 22.8952 14.9686 19.3078 20 19.3078C23.1302 19.3078 25.9343 20.6992 27.8455 22.8952C28.2067 23.3101 28.5377 23.7553 28.8287 24.2259L35.681 17.3092C35.3449 16.8792 34.9887 16.4592 34.6175 16.0595C30.9656 12.118 25.7687 9.64886 19.995 9.64886C16.1726 9.64886 12.601 10.7316 9.56609 12.6088V2C9.56609 0.895429 8.67066 0 7.56609 0H2Z" fill="url(#paint0_linear_2_62)"/>
<path fill-rule="evenodd" clip-rule="evenodd" d="M5.37748 43.5894C9.02935 47.5309 14.2262 50 20 50C31.0459 50 40 40.9684 40 29.827C40 28.6356 39.8975 27.467 39.7006 26.331C39.4476 24.8707 37.6803 24.4507 36.6369 25.5031L30.2132 31.9824C29.225 36.7588 25.0314 40.3461 20 40.3461C16.8698 40.3461 14.0657 38.9547 12.1545 36.7588C11.7933 36.3439 11.4623 35.8986 11.1713 35.4281L4.31403 42.3447C4.65012 42.7748 5.00628 43.1947 5.37748 43.5944" fill="url(#paint1_linear_2_62)"/>
<path fill-rule="evenodd" clip-rule="evenodd" d="M11.1663 35.423C10.2182 33.9 9.64137 32.119 9.57615 30.2064L2.72139 37.1205C2.13947 37.7074 1.97034 38.5965 2.35792 39.3265C2.92311 40.3911 3.57898 41.4 4.31405 42.3396L11.1713 35.423H11.1663Z" fill="#6FFFE9"/>
<path fill-rule="evenodd" clip-rule="evenodd" d="M28.8338 24.2258L23.3309 29.7763L21.3494 27.7777C21.3896 27.5247 21.4146 27.2616 21.4146 26.9985C21.4146 24.3573 19.2928 22.212 16.6692 22.212C14.0457 22.212 11.9238 24.3523 11.9238 26.9985C11.9238 27.2666 11.9439 27.5247 11.989 27.7777L9.57617 30.2114C9.64138 32.124 10.2183 33.91 11.1663 35.4279L15.059 31.5016C15.5606 31.6838 16.1024 31.785 16.6642 31.785C17.226 31.785 17.7678 31.6838 18.2694 31.5016L21.9056 35.1692C22.688 35.9584 23.9637 35.9584 24.7462 35.1692L26.7068 33.1916L30.4189 29.4474L37.2737 22.5333C37.8556 21.9464 38.0247 21.0573 37.6372 20.3273C37.072 19.2627 36.4161 18.2538 35.681 17.3142L28.8287 24.2308L28.8338 24.2258Z" fill="#6FFFE9"/>
<defs>
<linearGradient id="paint0_linear_2_62" x1="17.8405" y1="0" x2="17.8405" y2="36.4349" gradientUnits="userSpaceOnUse">
<stop stop-color="#177AE2"/>
<stop offset="1" stop-color="#0033B5"/>
</linearGradient>
<linearGradient id="paint1_linear_2_62" x1="22.157" y1="23.219" x2="22.157" y2="50" gradientUnits="userSpaceOnUse">
<stop stop-color="#177AE2"/>
<stop offset="1" stop-color="#0033B5"/>
</linearGradient>
</defs>
</svg>
